<?xml version="1.0" standalone="no"?><!DOCTYPE svg PUBLIC "-//W3C//DTD SVG 1.1//EN" "http://www.w3.org/Graphics/SVG/1.1/DTD/svg11.dtd"><svg t="1765202061008" class="icon" viewBox="0 0 1024 1024" version="1.1" xmlns="http://www.w3.org/2000/svg" p-id="17118" xmlns:xlink="http://www.w3.org/1999/xlink" width="200" height="200"><path d="M0 0m307.2 0l409.6 0q307.2 0 307.2 307.2l0 409.6q0 307.2-307.2 307.2l-409.6 0q-307.2 0-307.2-307.2l0-409.6q0-307.2 307.2-307.2Z" fill="#1389FF" p-id="17119"></path><path d="M716.8 215.296H307.2a307.2 307.2 0 0 0-307.2 307.2v201.728a307.2 307.2 0 0 1 307.2-307.2h409.6a307.2 307.2 0 0 1 307.2 307.2v-201.728a307.2 307.2 0 0 0-307.2-307.2z" fill="#2993FF" opacity=".5" p-id="17120"></path><path d="M716.8 417.024H307.2A307.2 307.2 0 0 0 0 720.384a298.752 298.752 0 0 0 18.432 100.864A307.2 307.2 0 0 1 307.2 618.752h409.6a307.2 307.2 0 0 1 288.512 202.496 298.752 298.752 0 0 0 18.688-100.864 307.2 307.2 0 0 0-307.2-303.36z" fill="#42A1FF" opacity=".5" p-id="17121"></path><path d="M1007.104 821.76a307.2 307.2 0 0 0-288.512-202.752h-409.6c-136.448 0-252.16 75.008-292.096 192.768a304.64 304.64 0 0 0 55.04 100.352 304.896 304.896 0 0 1 237.056-112.896h409.6a305.664 305.664 0 0 1 237.312 112.896 311.552 311.552 0 0 0 51.2-90.368z" fill="#5AACFF" opacity=".5" p-id="17122"></path><path d="M716.8 799.232H307.2a304.896 304.896 0 0 0-237.056 112.896A307.2 307.2 0 0 0 307.2 1024h409.6a307.2 307.2 0 0 0 237.056-111.872A304.896 304.896 0 0 0 716.8 799.232z" fill="#76BBFF" opacity=".5" p-id="17123"></path><path d="M715.264 225.28v163.584L632.576 307.2l-80.896 82.688V225.28h-204.8v573.44H716.8a82.688 82.688 0 0 0 82.688-81.92V307.2a85.248 85.248 0 0 0-84.224-81.92z m0 409.6h-286.72v-40.192h286.72z m0-123.136h-286.72v-40.192h286.72zM224.512 307.2v409.6A82.432 82.432 0 0 0 307.2 798.72V225.28A82.688 82.688 0 0 0 224.512 307.2z" fill="#FFFFFF" p-id="17124"></path></svg>