<?xml version="1.0" standalone="no"?><!DOCTYPE svg PUBLIC "-//W3C//DTD SVG 1.1//EN" "http://www.w3.org/Graphics/SVG/1.1/DTD/svg11.dtd"><svg t="1765200705252" class="icon" viewBox="0 0 1024 1024" version="1.1" xmlns="http://www.w3.org/2000/svg" p-id="8485" xmlns:xlink="http://www.w3.org/1999/xlink" width="200" height="200"><path d="M604.346182 158.254545a203.310545 203.310545 0 0 0-15.108655 50.017746h-373.573818c-35.588655 0-64.7168 25.088-65.9456 56.301382l-0.037236 2.048V766.696727c0 31.492655 28.374109 57.213673 63.674182 58.293528l2.308654 0.037236h490.272582c35.644509 0 64.726109-25.060073 65.9456-56.292073l0.037236-2.048V445.942691a207.332073 207.332073 0 0 0 56.599273-2.476218L828.509091 766.696727c0 58.833455-53.3504 106.9056-119.547346 108.329891l-3.025454 0.027927H215.663709c-66.578618 0-120.925091-47.187782-122.535564-105.695418L93.090909 766.696727V266.612364c0-58.833455 53.3504-106.9056 119.547346-108.329891l3.025454-0.027928H604.346182z m46.917818 502.69091c15.602036 0 28.299636 10.426182 28.299636 23.272727 0 12.381091-11.776 22.500073-26.577454 23.226182L651.264 707.490909H251.661964C236.059927 707.490909 223.418182 697.064727 223.418182 684.218182c0-12.381091 11.729455-22.500073 26.530909-23.226182l1.712873-0.046545H651.264z m0-167.563637c15.602036 0 28.299636 10.426182 28.299636 23.291346 0 12.381091-11.776 22.481455-26.577454 23.207563L651.264 539.927273H251.661964C236.059927 539.927273 223.418182 529.529018 223.418182 516.673164c0-12.3904 11.729455-22.518691 26.530909-23.2448l1.712873-0.046546H651.264zM791.272727 74.472727c92.541673 0 167.563636 75.021964 167.563637 167.563637s-75.021964 167.563636-167.563637 167.563636-167.563636-75.021964-167.563636-167.563636S698.731055 74.472727 791.272727 74.472727zM465.873455 335.127273C481.065891 335.127273 493.381818 345.516218 493.381818 358.418618c0 12.353164-11.422255 22.481455-25.832727 23.207564l-1.675636 0.046545h-205.637819C245.0432 381.672727 232.727273 371.246545 232.727273 358.418618c0-12.427636 11.422255-22.518691 25.832727-23.2448l1.675636-0.046545h205.637819zM791.272727 121.018182c-11.142982 0-20.1728 9.029818-20.1728 20.1728v80.672582h-80.672582a20.1728 20.1728 0 1 0 0 40.3456h80.672582v80.672581a20.1728 20.1728 0 1 0 40.3456 0v-80.672581h80.672582a20.1728 20.1728 0 1 0 0-40.3456h-80.672582v-80.672582C811.445527 130.048 802.415709 121.018182 791.272727 121.018182z" fill="#0077F2" p-id="8486"></path></svg>