<?xml version="1.0" standalone="no"?><!DOCTYPE svg PUBLIC "-//W3C//DTD SVG 1.1//EN" "http://www.w3.org/Graphics/SVG/1.1/DTD/svg11.dtd"><svg t="1765201951237" class="icon" viewBox="0 0 1024 1024" version="1.1" xmlns="http://www.w3.org/2000/svg" p-id="15063" xmlns:xlink="http://www.w3.org/1999/xlink" width="200" height="200"><path d="M85.333333 85.333333m85.333334 0l213.333333 0q85.333333 0 85.333333 85.333334l0 213.333333q0 85.333333-85.333333 85.333333l-213.333333 0q-85.333333 0-85.333334-85.333333l0-213.333333q0-85.333333 85.333334-85.333334Z" fill="#0454F2" p-id="15064"></path><path d="M85.333333 554.666667m85.333334 0l213.333333 0q85.333333 0 85.333333 85.333333l0 213.333333q0 85.333333-85.333333 85.333334l-213.333333 0q-85.333333 0-85.333334-85.333334l0-213.333333q0-85.333333 85.333334-85.333333Z" fill="#0454F2" p-id="15065"></path><path d="M554.666667 554.666667m85.333333 0l213.333333 0q85.333333 0 85.333334 85.333333l0 213.333333q0 85.333333-85.333334 85.333334l-213.333333 0q-85.333333 0-85.333333-85.333334l0-213.333333q0-85.333333 85.333333-85.333333Z" fill="#0454F2" p-id="15066"></path><path d="M554.666667 85.333333m192 0l0 0q192 0 192 192l0 0q0 192-192 192l0 0q-192 0-192-192l0 0q0-192 192-192Z" fill="#FF9400" p-id="15067"></path></svg>